<svg height="512pt" viewBox="0 0 512 512" width="512pt" xmlns="http://www.w3.org/2000/svg" xmlns:xlink="http://www.w3.org/1999/xlink"><linearGradient id="a" gradientTransform="matrix(1 0 0 -1 0 -13022)" gradientUnits="userSpaceOnUse" x1="0" x2="512" y1="-13278" y2="-13278"><stop offset="0" stop-color="#00f1ff"/><stop offset=".231" stop-color="#00d8ff"/><stop offset=".5138" stop-color="#00c0ff"/><stop offset=".7773" stop-color="#00b2ff"/><stop offset="1" stop-color="#00adff"/></linearGradient><path d="m512 256c0 141.386719-114.613281 256-256 256s-256-114.613281-256-256 114.613281-256 256-256 256 114.613281 256 256zm0 0" fill="url(#a)"/><g fill="#fff"><path d="m173.628906 330.355469c-7.582031 0-13.730468 6.148437-13.730468 13.730469 0 7.578124 6.144531 13.726562 13.730468 13.726562 7.582032 0 13.726563-6.144531 13.726563-13.726562 0-7.585938-6.144531-13.730469-13.726563-13.730469zm0 0"/><path d="m214.8125 344.082031c0 7.582031 6.148438 13.730469 13.730469 13.730469s13.726562-6.148438 13.726562-13.730469-6.144531-13.726562-13.726562-13.726562-13.730469 6.144531-13.730469 13.726562zm0 0"/><path d="m269.730469 344.082031c0 7.582031 6.144531 13.730469 13.726562 13.730469s13.730469-6.148438 13.730469-13.730469-6.148438-13.726562-13.730469-13.726562-13.726562 6.144531-13.726562 13.726562zm0 0"/><path d="m338.371094 330.355469c-7.582032 0-13.726563 6.148437-13.726563 13.730469 0 7.578124 6.144531 13.726562 13.726563 13.726562 7.582031 0 13.730468-6.144531 13.730468-13.726562 0-7.585938-6.148437-13.730469-13.730468-13.730469zm0 0"/><path d="m390.851562 275.9375c-8.023437-2.066406-16.203124 2.765625-18.265624 10.789062-2.066407 8.023438 2.761718 16.199219 10.785156 18.265626 11.558594 2.976562 19.628906 13.402343 19.628906 25.363281v27.457031c0 14.4375-11.746094 26.1875-26.1875 26.1875h-241.625c-14.441406 0-26.1875-11.746094-26.1875-26.1875v-27.457031c0-11.535157 7.714844-21.867188 18.761719-25.125 7.945312-2.339844 12.484375-10.683594 10.144531-18.628907-2.34375-7.945312-10.6875-12.484374-18.632812-10.144531-23.710938 6.992188-40.273438 29.15625-40.273438 53.898438v27.457031c0 30.980469 25.203125 56.1875 56.1875 56.1875h241.625c30.984375 0 56.1875-25.207031 56.1875-56.1875v-27.457031c0-25.652344-17.332031-48.027344-42.148438-54.417969zm0 0"/><path d="m199.710938 304.152344h112.578124c23.410157 0 42.457032-19.046875 42.457032-42.457032v-74.136718c0-23.410156-19.046875-42.457032-42.457032-42.457032h-1.492187v-31.390624c0-29.617188-24.589844-53.710938-54.8125-53.710938s-54.8125 24.09375-54.8125 53.710938v31.390624h-1.460937c-23.410157 0-42.457032 19.046876-42.457032 42.457032v74.136718c0 23.410157 19.046875 42.457032 42.457032 42.457032zm31.460937-190.441406c0-13.074219 11.128906-23.710938 24.8125-23.710938 13.679687 0 24.8125 10.636719 24.8125 23.710938v31.390624h-49.625zm-43.917969 73.847656c0-6.867188 5.589844-12.457032 12.457032-12.457032h112.578124c6.867188 0 12.457032 5.585938 12.457032 12.457032v74.136718c0 6.867188-5.589844 12.457032-12.457032 12.457032h-112.578124c-6.867188 0-12.457032-5.585938-12.457032-12.457032zm0 0"/><path d="m269.730469 226.015625c0 7.582031-6.148438 13.730469-13.730469 13.730469s-13.730469-6.148438-13.730469-13.730469 6.148438-13.730469 13.730469-13.730469 13.730469 6.148438 13.730469 13.730469zm0 0"/></g></svg>